<?xml version="1.0" standalone="no"?>
<!DOCTYPE svg PUBLIC "-//W3C//DTD SVG 20010904//EN"
 "http://www.w3.org/TR/2001/REC-SVG-20010904/DTD/svg10.dtd">
<svg version="1.0" xmlns="http://www.w3.org/2000/svg"
 width="260.000000pt" height="260.000000pt" viewBox="0 0 260.000000 260.000000"
 preserveAspectRatio="xMidYMid meet">
<metadata>
Created by potrace 1.11, written by Peter Selinger 2001-2013
</metadata>
<g transform="translate(0.000000,260.000000) scale(0.100000,-0.100000)"
fill="#000000" stroke="none">
<path d="M50 1300 l0 -380 280 1 c154 1 277 5 275 9 -3 4 11 11 30 14 19 4 35
11 35 17 0 6 4 8 9 4 5 -3 17 2 25 11 9 8 16 13 16 10 0 -3 20 13 44 37 24 23
41 45 39 50 -2 4 0 7 4 7 5 0 9 10 10 22 1 11 8 25 15 29 10 7 10 9 -2 9 -13
0 -13 2 -1 9 8 5 16 17 17 25 1 9 -2 13 -8 10 -6 -4 -6 2 1 14 14 27 14 35 -1
26 -9 -5 -9 -2 1 9 11 14 11 17 0 17 -12 0 -12 2 -1 9 17 11 17 21 0 32 -10 7
-10 9 0 9 6 0 12 7 12 15 0 8 -6 15 -12 15 -8 0 -9 3 -3 8 14 10 16 45 2 54
-8 5 -8 8 3 8 13 0 13 1 0 10 -11 7 -12 10 -2 10 10 0 10 3 -1 15 -9 8 -13 24
-10 35 3 11 1 20 -5 20 -5 0 -17 18 -26 40 -9 23 -23 40 -32 40 -8 0 -12 5 -9
10 3 6 -1 10 -9 10 -9 0 -16 8 -16 17 0 9 -3 14 -6 10 -4 -3 -19 0 -34 8 -15
8 -31 11 -35 7 -5 -4 -5 -1 -1 6 4 6 2 12 -4 12 -6 0 -8 5 -4 13 6 9 5 9 -7 0
-12 -10 -18 -10 -27 -1 -15 15 -53 18 -45 4 4 -7 1 -6 -8 1 -10 8 -89 11 -261
12 l-248 1 0 -380z m346 171 c-3 -5 1 -11 9 -14 9 -4 12 -1 9 8 -4 9 1 12 13
10 10 -2 22 -4 26 -4 5 -1 5 -5 2 -11 -3 -6 1 -7 9 -4 24 9 75 -17 68 -35 -3
-9 -1 -12 6 -7 8 5 12 -1 12 -18 0 -14 5 -26 11 -26 6 0 3 -7 -6 -16 -11 -11
-13 -20 -6 -27 6 -6 6 -18 1 -32 -5 -13 -6 -25 -3 -28 9 -9 10 -66 1 -61 -5 3
-6 -7 -4 -21 3 -15 2 -25 -1 -21 -3 3 -12 -2 -20 -12 -9 -10 -12 -11 -7 -2 5
10 1 9 -14 -3 -11 -11 -26 -16 -31 -12 -6 3 -11 1 -11 -4 0 -6 -5 -11 -11 -11
-5 0 -8 3 -6 8 3 4 -5 7 -18 7 -13 0 -21 -3 -18 -7 7 -13 -12 -9 -25 4 -7 7
-12 8 -12 2 0 -6 -6 -11 -14 -11 -8 0 -12 6 -9 14 3 7 1 13 -5 13 -11 0 -11
18 1 38 5 6 4 12 -1 12 -10 0 -9 30 2 48 4 7 2 12 -4 12 -6 0 -8 5 -4 12 11
17 12 48 2 42 -10 -6 -11 10 0 20 10 11 9 30 -3 38 -6 5 -4 8 5 8 13 0 13 1 0
10 -11 8 -12 12 -3 18 7 5 9 13 3 21 -4 8 -6 20 -3 28 4 11 8 11 21 1 10 -9
13 -9 9 -1 -4 7 0 13 10 16 10 3 19 5 21 6 2 0 1 -3 -2 -8z"/>
<path d="M919 1678 c-6 -21 -2 -58 6 -58 5 0 3 -5 -5 -10 -13 -9 -13 -11 0
-20 10 -6 11 -10 3 -10 -9 0 -10 -7 -3 -25 6 -16 6 -26 -1 -31 -8 -4 -7 -9 2
-15 8 -5 9 -9 4 -9 -6 0 -11 -9 -11 -20 0 -11 5 -20 11 -20 5 0 4 -4 -4 -9 -9
-6 -10 -11 -2 -15 7 -5 7 -15 1 -31 -7 -18 -6 -25 3 -25 8 0 7 -4 -3 -10 -13
-9 -13 -11 0 -20 10 -6 11 -10 3 -10 -9 0 -10 -7 -3 -25 6 -16 6 -26 -1 -31
-8 -4 -7 -9 2 -15 8 -5 9 -9 3 -9 -11 0 -12 -35 -1 -46 4 -4 2 -13 -4 -21 -9
-10 -8 -13 1 -13 10 0 10 -3 0 -15 -10 -12 -10 -15 1 -15 12 0 12 -2 1 -9 -15
-9 -15 -20 0 -38 7 -9 7 -13 -1 -13 -8 0 -9 -5 -2 -18 7 -13 6 -23 -1 -30 -9
-9 -8 -12 2 -12 12 0 12 -2 2 -9 -17 -11 -17 -21 0 -32 11 -7 11 -9 -1 -9 -11
0 -11 -3 -1 -15 8 -10 9 -15 2 -15 -6 0 -9 -7 -6 -15 5 -12 31 -15 144 -15 94
0 141 4 146 12 5 7 3 8 -7 3 -12 -8 -12 -6 0 8 11 14 11 17 0 17 -9 0 -10 3
-4 8 15 11 17 32 5 47 -8 9 -8 15 0 20 7 4 7 13 -1 27 -8 15 -8 19 1 13 14 -9
10 27 -5 37 -6 5 -5 8 4 8 11 0 11 3 0 17 -12 15 -12 16 3 10 9 -3 19 -3 21 1
2 4 2 1 1 -5 -2 -7 3 -13 11 -13 7 0 17 -5 21 -12 5 -7 3 -8 -7 -3 -12 7 -3
-6 36 -51 6 -6 21 -26 35 -43 14 -18 35 -42 48 -53 12 -12 22 -27 22 -34 0 -9
44 -13 180 -14 156 -1 180 1 180 15 0 8 -5 15 -11 15 -5 0 -7 5 -4 10 3 6 0
10 -8 10 -7 0 -19 12 -25 26 -7 14 -17 22 -22 19 -6 -4 -10 -3 -9 2 4 21 -2
33 -17 33 -8 0 -13 4 -10 9 4 5 -11 27 -33 50 -21 22 -36 43 -33 46 3 3 -1 5
-8 5 -7 0 -11 3 -7 6 3 3 -2 14 -11 23 -45 49 -82 92 -82 98 0 3 -7 11 -16 18
-14 9 -14 16 -5 33 6 12 16 22 22 22 6 0 7 5 4 10 -3 6 1 10 9 10 9 0 15 4 14
9 -2 4 8 18 22 30 14 13 18 19 10 15 -13 -7 -13 -5 -1 9 7 9 17 14 22 11 5 -3
8 -2 7 3 -5 14 45 73 55 66 6 -3 7 -1 3 5 -4 7 -2 12 5 12 7 0 9 3 6 7 -4 3 5
17 19 30 14 12 22 23 18 23 -4 0 6 12 22 26 16 15 22 23 14 19 -9 -4 -9 -1 3
8 9 8 17 17 17 21 0 3 -70 6 -155 6 -147 0 -212 -10 -199 -31 3 -5 -2 -9 -10
-9 -9 0 -16 -9 -16 -21 0 -11 -4 -17 -10 -14 -5 3 -10 -1 -10 -9 0 -9 -8 -16
-17 -16 -14 0 -15 -2 -4 -9 9 -6 10 -11 2 -15 -6 -4 -11 -4 -11 1 0 4 -10 -8
-21 -27 -12 -19 -28 -39 -35 -43 -8 -5 -11 -13 -8 -19 4 -6 1 -9 -7 -6 -8 3
-14 9 -14 14 0 5 -4 15 -8 22 -5 6 -4 12 2 12 11 0 9 19 -3 39 -6 10 -5 12 2
7 7 -4 12 -3 12 3 0 5 -5 13 -10 16 -7 4 -7 12 0 25 7 13 7 21 0 25 -8 5 -7
11 1 21 9 11 9 14 0 14 -7 0 -10 4 -7 9 4 5 -54 10 -134 10 -77 1 -140 1 -141
-1z"/>
<path d="M1748 1668 c-9 -80 -10 -84 -5 -118 2 -14 -1 -30 -5 -37 -5 -6 -5
-14 1 -17 5 -3 7 -14 4 -25 -3 -12 2 -20 16 -24 12 -3 19 -2 16 3 -4 7 5 6 73
-4 12 -2 22 2 22 8 0 6 5 4 10 -4 7 -11 10 -11 10 -2 0 7 5 10 12 6 17 -11 78
-10 78 1 0 6 7 -3 15 -18 8 -15 11 -35 8 -44 -4 -11 -3 -14 5 -9 7 4 12 2 12
-3 0 -6 -8 -11 -17 -11 -11 0 -14 -3 -7 -8 6 -4 10 -36 10 -75 -1 -38 3 -67 9
-68 6 0 1 -4 -10 -9 -11 -5 -15 -9 -9 -9 15 -1 16 -61 1 -61 -7 0 -6 -4 3 -10
12 -7 13 -13 4 -28 -8 -13 -9 -24 -2 -36 8 -13 7 -21 -3 -27 -8 -5 -9 -9 -3
-9 6 0 11 -16 11 -35 0 -19 -5 -35 -11 -35 -6 0 -4 -5 4 -10 8 -5 11 -10 5
-10 -5 0 -3 -5 5 -10 19 -12 280 -13 280 -1 0 5 -6 12 -12 14 -7 3 -4 6 7 6
17 1 17 3 5 11 -12 8 -12 10 5 10 18 1 19 1 3 11 -10 5 -18 15 -18 20 0 6 6 7
13 3 8 -5 8 -2 -2 9 -10 13 -10 17 -1 17 9 0 9 4 2 13 -13 15 -13 19 -2 57 5
16 5 30 1 30 -13 0 -6 45 9 58 13 10 13 11 -2 6 -15 -5 -16 -2 -9 24 6 20 5
34 -2 41 -8 8 -8 11 2 11 7 0 9 5 4 13 -14 22 -14 49 -1 41 9 -5 9 -2 -1 9 -9
12 -10 17 -2 17 7 0 9 5 4 13 -11 18 -15 49 -4 43 4 -3 6 7 3 22 -5 24 -3 25
10 14 13 -10 18 -10 24 -1 4 8 3 9 -4 5 -7 -4 -12 -2 -12 4 0 8 7 9 18 5 28
-11 72 -12 72 -1 0 5 7 1 16 -10 8 -10 12 -13 8 -5 -5 11 -3 13 9 8 10 -3 17
-2 17 4 0 6 6 7 12 3 11 -7 35 -9 66 -5 5 1 8 31 8 69 -1 37 3 73 8 80 5 7 5
12 -1 12 -6 0 -9 16 -8 35 l3 35 -394 0 c-308 0 -394 -3 -396 -12z"/>
</g>
</svg>
